<svg xmlns="http://www.w3.org/2000/svg" xmlns:xlink="http://www.w3.org/1999/xlink" viewBox="0 0 36 36">
<title>💰: money bag (U+1F4B0) - emojiall.com</title>
<style>svg{stroke:#edf2f6;animation:dashoffset 10s both infinite,fill-opacity 10s both infinite,stroke-opacity 10s both infinite;stroke-dasharray:500%;stroke-dashoffset:500%}@keyframes stroke-opacity{2%,25%{stroke-opacity:.75;stroke-width:2%}100%,75%{stroke-opacity:0;stroke-width:0}}@keyframes fill-opacity{10%,25%{fill-opacity:0}0%,100%,50%{fill-opacity:1}}@keyframes dashoffset{0%,2%{stroke-dashoffset:500%}100%{stroke-dashoffset:0%}}</style>
<path fill="#FDD888" d="M31.898 23.938C31.3 17.32 28 14 28 14l-6-8h-8l-6 8s-1.419 1.433-2.567 4.275C3.444 18.935 2 20.789 2 23c0 1.448.625 2.742 1.609 3.655C3.233 27.357 3 28.147 3 29c0 1.958 1.136 3.636 2.775 4.456C7.058 35.378 8.772 36 10 36h16c1.379 0 3.373-.779 4.678-3.31C32.609 31.999 34 30.17 34 28c0-1.678-.834-3.154-2.102-4.062zM18 6c.55 0 1.058-.158 1.5-.416.443.258.951.416 1.5.416 1.657 0 4-2.344 4-4 0 0 0-2-2-2-.788 0-1 1-2 1s-1-1-3-1-2 1-3 1-1.211-1-2-1c-2 0-2 2-2 2 0 1.656 2.344 4 4 4 .549 0 1.057-.158 1.5-.416.443.258.951.416 1.5.416z"/>
<path fill="#BF6952" d="M24 6c0 .552-.447 1-1 1H13c-.552 0-1-.448-1-1s.448-1 1-1h10c.553 0 1 .448 1 1z"/>
<path fill="#67757F" d="M23.901 24.542c0-4.477-8.581-4.185-8.581-6.886 0-1.308 1.301-1.947 2.811-1.947 2.538 0 2.99 1.569 4.139 1.569.813 0 1.205-.493 1.205-1.046 0-1.284-2.024-2.256-3.965-2.592V12.4c0-.773-.65-1.4-1.454-1.4-.805 0-1.456.627-1.456 1.4v1.283c-2.116.463-3.937 1.875-3.937 4.176 0 4.299 8.579 4.125 8.579 7.145 0 1.047-1.178 2.093-3.111 2.093-2.901 0-3.867-1.889-5.045-1.889-.574 0-1.087.464-1.087 1.164 0 1.113 1.938 2.451 4.603 2.824l-.001.01v1.398c0 .772.652 1.4 1.456 1.4.804 0 1.455-.628 1.455-1.4v-1.398c0-.017-.008-.03-.009-.045 2.398-.43 4.398-1.932 4.398-4.619z"/>
<a xlink:href="https://www.emojiall.com/en/emoji/%F0%9F%92%B0"><text x="36" y="34" font-size="1px" fill="#888da8" text-anchor="end" font-family="-apple-system,BlinkMacSystemFont,'Segoe UI',Roboto,'Helvetica Neue',Arial,'Noto Sans',sans-serif,'Apple Color Emoji','Segoe UI Emoji','Segoe UI Symbol','Noto Color Emoji'">💰</text></a>
<a xlink:href="https://www.emojiall.com/"><text x="36" y="35" font-size="0.8px" fill="#888da8" text-anchor="end"><title>www.emojiall.com</title>emojiall.com</text></a>
</svg>