<?xml version="1.0" standalone="no"?>
<!DOCTYPE svg PUBLIC "-//W3C//DTD SVG 20010904//EN"
 "http://www.w3.org/TR/2001/REC-SVG-20010904/DTD/svg10.dtd">
<svg version="1.0" xmlns="http://www.w3.org/2000/svg"
 width="225.000000pt" height="224.000000pt" viewBox="0 0 225.000000 224.000000"
 preserveAspectRatio="xMidYMid meet">

<g transform="translate(0.000000,224.000000) scale(0.100000,-0.100000)"
fill="#000000" stroke="none">
<path d="M910 2073 c-101 -17 -237 -69 -329 -127 -71 -44 -97 -41 -95 10 1 47
-43 62 -61 22 -13 -31 -53 -36 -72 -9 -12 17 -18 19 -34 10 -16 -8 -19 -17
-14 -36 10 -42 -2 -63 -40 -63 -21 0 -35 -6 -39 -16 -10 -25 -7 -30 19 -42 30
-14 33 -47 6 -76 -17 -19 -18 -23 -5 -40 12 -16 18 -18 39 -8 20 9 25 9 25 -3
0 -7 -4 -16 -9 -19 -5 -3 -7 -15 -4 -26 4 -13 -1 -26 -12 -34 -19 -14 -13 -57
8 -53 7 1 12 -9 12 -23 0 -19 -6 -26 -25 -29 -32 -4 -41 -18 -29 -47 6 -19 4
-26 -11 -34 -25 -14 -30 -13 -30 6 0 38 -26 1 -44 -62 -24 -87 -29 -349 -8
-431 l14 -53 65 0 c37 0 62 4 58 9 -3 5 -1 12 5 16 5 3 10 -1 10 -9 0 -11 9
-16 30 -16 l30 0 0 335 0 335 338 0 337 0 13 -27 c6 -15 12 -32 11 -37 0 -6
-4 -2 -9 9 -5 13 -8 -8 -8 -60 -1 -51 3 -82 11 -87 9 -6 9 -8 0 -8 -20 0 -16
-40 5 -41 15 0 15 -1 1 -7 -15 -6 -17 -24 -15 -127 2 -66 6 -131 9 -145 6 -21
6 -21 -2 -5 -7 14 -10 -17 -10 -102 -1 -108 1 -122 17 -126 9 -3 -4 -5 -30 -6
l-48 -1 0 231 c0 127 4 238 9 247 5 10 11 47 13 82 l3 65 -52 3 -53 3 0 -54
c0 -30 7 -71 15 -90 12 -29 15 -84 15 -262 l0 -225 -420 0 -420 0 0 -285 0
-285 345 0 c238 0 345 3 345 11 0 6 8 8 18 5 9 -3 29 -8 45 -12 l27 -6 0 174
c0 138 3 178 15 194 19 25 19 103 0 128 -31 41 -21 47 68 44 76 -3 82 -5 79
-23 -2 -11 -10 -27 -17 -35 -16 -18 -11 -77 10 -117 10 -19 15 -60 15 -130 l0
-103 26 0 c14 0 23 -4 19 -10 -3 -5 -15 -10 -25 -10 -16 0 -19 -10 -22 -66
l-3 -67 75 6 c41 4 100 12 132 18 56 11 56 12 62 53 18 119 132 173 226 106
l30 -22 48 36 c58 42 135 123 186 194 32 44 43 52 70 52 38 0 56 15 56 47 0
18 -6 23 -24 23 l-24 0 33 82 c18 46 36 102 40 125 6 36 11 43 36 48 71 16 94
132 33 168 -11 6 -14 61 -14 277 l0 270 23 15 c49 32 61 107 27 163 -30 49
-50 42 -50 -16 0 -36 -5 -54 -20 -67 -18 -17 -21 -17 -45 -1 -21 14 -25 24
-25 66 0 60 -20 67 -50 18 -34 -56 -19 -142 30 -168 18 -10 20 -21 19 -103 l0
-92 -25 50 c-13 28 -39 74 -56 103 l-32 52 -68 0 c-68 0 -81 -7 -53 -30 18
-15 20 -30 4 -30 -6 0 -13 9 -16 19 -3 11 -20 27 -39 36 -37 18 -37 15 -34
131 l2 80 -39 27 c-65 45 -206 106 -294 127 -63 15 -115 20 -209 19 -69 -1
-136 -4 -150 -6z m105 -114 c-8 -12 -35 -12 -35 0 0 11 22 20 33 14 4 -2 5 -9
2 -14z m63 10 c-2 -6 -7 -10 -11 -10 -4 1 -14 1 -22 1 -8 0 -15 5 -15 10 0 6
12 10 26 10 14 0 24 -5 22 -11z m36 5 c18 -7 12 -24 -10 -24 -8 0 -14 7 -14
15 0 17 2 18 24 9z m-144 -14 c0 -5 -12 -10 -26 -10 -14 0 -23 4 -19 10 3 6
15 10 26 10 10 0 19 -4 19 -10z m220 0 c0 -5 -11 -10 -25 -10 -14 0 -25 5 -25
10 0 6 11 10 25 10 14 0 25 -4 25 -10z m-280 -9 c0 -5 -9 -11 -20 -14 -20 -5
-26 3 -13 16 9 10 33 8 33 -2z m330 -1 c0 -5 -9 -10 -20 -10 -11 0 -20 5 -20
10 0 6 9 10 20 10 11 0 20 -4 20 -10z m-380 -10 c0 -5 -15 -13 -32 -18 -18 -6
-41 -13 -50 -17 -10 -4 -18 -3 -18 3 0 6 19 17 43 25 52 19 57 19 57 7z m430
0 c17 -11 15 -12 -21 -14 -18 -1 -25 2 -22 11 6 15 22 16 43 3z m57 -27 c3 -7
-3 -9 -16 -6 -12 3 -21 10 -21 15 0 13 32 6 37 -9z m-894 -6 c44 -19 72 -72
63 -120 -9 -48 -55 -87 -105 -87 -93 0 -140 109 -77 179 37 41 69 48 119 28z
m297 -6 c0 -11 -31 -24 -39 -16 -3 3 1 10 9 15 19 12 30 12 30 1z m647 -8 c3
-7 -3 -9 -16 -6 -12 3 -21 10 -21 15 0 13 32 6 37 -9z m-697 -17 c0 -15 -29
-30 -39 -20 -3 3 3 12 13 20 24 17 26 17 26 0z m734 8 c24 -9 19 -22 -8 -20
-14 0 -22 6 -19 14 6 14 6 14 27 6z m-794 -49 c-7 -8 -17 -12 -23 -8 -6 4 -3
11 8 19 23 17 32 10 15 -11z m852 12 c7 -7 21 -16 31 -20 9 -3 17 -14 17 -23
0 -12 -6 -10 -31 10 -17 14 -35 26 -40 26 -5 0 -9 5 -9 10 0 14 16 12 32 -3z
m-882 -37 c0 -10 -31 -23 -38 -15 -8 7 19 35 29 29 5 -3 9 -9 9 -14z m980 -40
c0 -14 -14 -12 -28 2 -19 19 -14 30 8 18 11 -6 20 -15 20 -20z m-1145 -120
c-3 -5 -10 -10 -16 -10 -5 0 -9 5 -9 10 0 6 7 10 16 10 8 0 12 -4 9 -10z m640
-100 c3 -5 1 -10 -4 -10 -6 0 -11 5 -11 10 0 6 2 10 4 10 3 0 8 -4 11 -10z
m103 -7 c-10 -2 -28 -2 -40 0 -13 2 -5 4 17 4 22 1 32 -1 23 -4z m390 0 c-10
-2 -28 -2 -40 0 -13 2 -5 4 17 4 22 1 32 -1 23 -4z m139 -15 c-3 -8 -6 -5 -6
6 -1 11 2 17 5 13 3 -3 4 -12 1 -19z m-603 -6 c2 -4 -4 -9 -15 -9 -11 -1 -17
2 -14 8 7 11 22 12 29 1z m553 -34 c-3 -8 -6 -5 -6 6 -1 11 2 17 5 13 3 -3 4
-12 1 -19z m-560 6 c-3 -3 -12 -4 -19 -1 -8 3 -5 6 6 6 11 1 17 -2 13 -5z
m513 -31 c0 -17 -18 -18 -256 -15 -209 2 -259 5 -271 17 -13 13 18 15 256 15
251 0 271 -1 271 -17z m40 7 c8 -5 11 -10 5 -10 -5 0 -17 5 -25 10 -8 5 -10
10 -5 10 6 0 17 -5 25 -10z m147 -5 c8 -22 -6 -33 -17 -15 -13 20 -12 30 0 30
6 0 13 -7 17 -15z m-717 -30 c0 -14 -2 -25 -4 -25 -2 0 -6 11 -8 25 -3 14 -1
25 3 25 5 0 9 -11 9 -25z m380 -10 c6 -3 10 -1 10 5 0 8 6 8 20 0 26 -14 26
-30 0 -37 -11 -3 -17 -9 -14 -14 3 -5 0 -9 -5 -9 -6 0 -11 5 -11 10 0 14 -345
13 -371 0 -13 -7 -19 -7 -19 0 0 5 5 10 10 10 6 0 10 10 10 23 l0 22 180 -2
c99 -1 185 -5 190 -8z m354 -11 c9 -22 -3 -32 -14 -14 -12 19 -12 30 -1 30 5
0 12 -7 15 -16z m-1514 -6 c0 -24 -21 -88 -29 -88 -4 0 -3 23 3 50 9 45 26 69
26 38z m1530 -53 c0 -14 -4 -25 -10 -25 -5 0 -10 11 -10 25 0 14 5 25 10 25 6
0 10 -11 10 -25z m-560 0 c0 -12 -17 -15 -95 -15 -80 0 -93 2 -89 15 5 12 25
15 95 15 72 0 89 -3 89 -15z m570 -47 c0 -7 3 -30 6 -50 5 -27 3 -38 -6 -38
-8 0 -11 9 -8 25 3 14 1 28 -3 31 -12 7 -11 44 1 44 6 0 10 -6 10 -12z m-1560
-12 c0 -15 -18 -31 -26 -23 -7 7 7 37 17 37 5 0 9 -6 9 -14z m974 -12 c4 -10
1 -14 -6 -12 -15 5 -23 28 -10 28 5 0 13 -7 16 -16z m-64 2 c0 -9 -40 -13 -46
-5 -3 5 6 9 20 9 14 0 26 -2 26 -4z m473 -23 c-16 -6 -17 -29 -3 -36 6 -3 5
-4 -2 -3 -18 4 -23 37 -7 47 7 4 16 5 19 2 3 -3 -1 -8 -7 -10z m-1393 -28 c0
-14 -4 -25 -10 -25 -5 0 -10 11 -10 25 0 14 5 25 10 25 6 0 10 -11 10 -25z
m880 7 c0 -15 -6 -18 -30 -14 -17 2 -30 10 -30 18 0 9 11 14 30 14 22 0 30 -5
30 -18z m470 8 c-13 -9 -13 -10 0 -10 12 0 13 -2 1 -9 -7 -5 -102 -9 -210 -9
-108 0 -208 -3 -223 -5 -16 -2 -28 0 -28 4 0 5 9 9 20 9 11 0 20 7 20 15 0 13
31 15 218 15 144 0 212 -4 202 -10z m-545 -43 c-8 -4 -15 -16 -16 -25 0 -12
-2 -13 -6 -4 -8 20 18 66 28 50 5 -8 2 -16 -6 -21z m423 -6 c71 -1 83 -3 80
-17 -3 -14 -31 -16 -245 -16 -134 0 -243 -4 -243 -9 0 -5 123 -9 276 -9 232 0
277 -2 290 -15 14 -13 -4 -15 -163 -15 -98 0 -230 -1 -293 -3 l-115 -2 1 28
c1 15 2 33 3 41 2 22 -3 22 409 17z m161 -14 c0 -9 -2 -8 -6 1 -2 6 -10 9 -15
6 -7 -4 -8 -2 -4 5 9 13 26 5 25 -12z m194 11 c8 -22 3 -73 -7 -71 -13 3 -19
83 -7 83 5 0 11 -6 14 -12z m-1583 -23 c0 -8 -4 -17 -10 -20 -6 -4 -10 5 -10
20 0 15 4 24 10 20 6 -3 10 -12 10 -20z m1373 -12 c-7 -2 -19 -2 -25 0 -7 3
-2 5 12 5 14 0 19 -2 13 -5z m-586 -35 c-3 -8 -6 -5 -6 6 -1 11 2 17 5 13 3
-3 4 -12 1 -19z m-787 -8 c0 -11 -4 -20 -10 -20 -5 0 -10 9 -10 20 0 11 5 20
10 20 6 0 10 -9 10 -20z m1737 -34 c15 -32 15 -37 -1 -60 -18 -29 -52 -37 -42
-10 3 9 6 36 6 60 0 53 14 57 37 10z m-157 -1 c0 -14 -4 -25 -10 -25 -11 0
-14 33 -3 43 11 11 13 8 13 -18z m-517 -5 c9 -11 17 -21 17 -23 0 -1 -58 -1
-130 1 -86 2 -130 0 -130 -7 0 -7 59 -11 175 -11 175 0 175 0 175 -22 l0 -23
-174 3 -174 3 -6 24 c-4 14 -4 36 0 50 6 25 7 25 118 25 99 0 113 -2 129 -20z
m-1063 -21 c0 -10 -4 -19 -10 -19 -5 0 -10 12 -10 26 0 14 4 23 10 19 6 -3 10
-15 10 -26z m1576 -31 c-4 -13 -9 -32 -10 -43 -2 -11 -4 -23 -5 -27 0 -5 -6
-8 -12 -8 -6 0 -8 9 -3 23 4 12 8 31 9 42 4 34 5 35 16 35 7 0 9 -9 5 -22z
m-1566 -13 c0 -8 0 -18 1 -22 0 -4 -4 -9 -10 -11 -6 -2 -11 8 -11 22 0 14 5
26 10 26 6 0 10 -7 10 -15z m1200 6 c0 -6 -4 -13 -10 -16 -5 -3 -10 1 -10 9 0
9 5 16 10 16 6 0 10 -4 10 -9z m141 -62 c-25 -24 -39 -29 -73 -27 l-43 1 45 7
c25 4 -69 8 -207 8 -234 2 -253 3 -253 20 0 16 19 17 255 17 197 0 255 -3 255
-12 0 -21 17 -15 23 8 3 12 10 18 17 14 7 -4 0 -17 -19 -36z m-1331 -9 c0 -11
-4 -20 -10 -20 -5 0 -10 9 -10 20 0 11 5 20 10 20 6 0 10 -9 10 -20z m975 -23
c74 -3 119 -1 105 4 -18 5 -7 7 37 6 57 -2 62 -4 65 -27 l4 -25 -193 0 -193 0
0 26 c0 21 4 26 23 23 12 -2 81 -5 152 -7z m549 -25 c-4 -9 -9 -26 -11 -36 -4
-24 -11 -31 -19 -23 -4 4 -2 19 4 34 5 15 13 37 17 48 5 13 9 16 12 7 3 -7 2
-20 -3 -30z m-170 13 c-6 -16 -24 -21 -24 -7 0 11 11 22 21 22 5 0 6 -7 3 -15z
m150 -100 c-4 -8 -10 -12 -15 -9 -14 8 -10 24 6 24 9 0 12 -6 9 -15z m-1531
-129 c3 -7 0 -19 -6 -25 -6 -6 -7 -11 -1 -11 5 0 9 -12 8 -27 -1 -27 -3 -28
-62 -31 l-62 -3 0 49 c0 27 3 52 7 55 13 14 111 8 116 -7z m142 4 c4 -6 -12
-10 -40 -10 -28 0 -44 4 -40 10 3 6 21 10 40 10 19 0 37 -4 40 -10z m48 -7
c-7 -2 -19 -2 -25 0 -7 3 -2 5 12 5 14 0 19 -2 13 -5z m80 0 c-13 -2 -33 -2
-45 0 -13 2 -3 4 22 4 25 0 35 -2 23 -4z m107 -27 c8 -2 -59 -4 -150 -3 -91 0
-145 3 -120 6 44 6 240 3 270 -3z m40 -26 c0 -6 -30 -10 -70 -10 -40 0 -70 4
-70 10 0 6 30 10 70 10 40 0 70 -4 70 -10z m990 1 c0 -6 -5 -13 -10 -16 -6 -4
-7 -11 -4 -17 4 -6 2 -8 -3 -5 -6 4 -36 -18 -68 -48 -31 -30 -61 -55 -66 -55
-15 0 -10 20 7 27 9 3 42 32 73 65 55 56 71 68 71 49z m-1407 -128 c3 -27 2
-52 -2 -56 -5 -5 -32 -7 -62 -5 l-54 3 -3 53 -3 52 59 0 59 0 6 -47z m207 37
c0 -6 -32 -10 -75 -10 -43 0 -75 4 -75 10 0 6 32 10 75 10 43 0 75 -4 75 -10z
m80 -60 c0 -6 -43 -10 -110 -10 -67 0 -110 4 -110 10 0 6 43 10 110 10 67 0
110 -4 110 -10z m950 0 c0 -13 -28 -25 -38 -16 -3 4 0 11 8 16 20 13 30 12 30
0z m-50 -30 c0 -13 -129 -74 -138 -66 -9 10 20 27 36 21 6 -2 12 0 12 5 0 5
11 12 25 16 13 3 29 12 36 20 13 16 29 18 29 4z m-1185 -100 l0 -50 -62 0 -63
0 0 50 0 50 63 0 62 0 0 -50z m95 40 c0 -5 -6 -10 -14 -10 -8 0 -18 5 -21 10
-3 6 3 10 14 10 12 0 21 -4 21 -10z m227 3 c-31 -2 -83 -2 -115 0 -31 2 -5 3
58 3 63 0 89 -1 57 -3z m221 -12 c3 -8 -1 -12 -9 -9 -7 2 -15 10 -17 17 -3 8
1 12 9 9 7 -2 15 -10 17 -17z m42 -1 c8 -5 11 -12 8 -16 -10 -9 -38 3 -38 16
0 12 10 13 30 0z m450 1 c0 -10 -30 -24 -37 -17 -3 3 -2 9 2 15 8 13 35 15 35
2z m-50 -10 c0 -12 -30 -22 -43 -14 -7 4 -3 9 9 14 26 10 34 10 34 0z m-570
-8 c0 -9 -340 -7 -348 2 -3 3 74 5 171 5 98 0 177 -3 177 -7z m505 -12 c-8
-13 -35 -15 -35 -2 0 5 8 11 18 13 21 5 26 2 17 -11z m-45 0 c0 -5 -7 -12 -16
-15 -22 -9 -24 -8 -24 9 0 8 9 15 20 15 11 0 20 -4 20 -9z m-600 -49 c0 -4
-16 -8 -35 -9 -19 -1 -35 3 -35 8 0 5 16 9 35 9 19 0 35 -4 35 -8z"/>
<path d="M377 1843 c-13 -12 -7 -60 8 -73 8 -7 25 -10 39 -6 51 13 40 86 -13
86 -15 0 -31 -3 -34 -7z"/>
<path d="M126 835 c5 -11 24 -15 80 -15 59 0 74 3 74 15 0 12 -16 15 -80 15
-66 0 -78 -2 -74 -15z"/>
<path d="M680 835 c0 -8 7 -15 15 -15 8 0 15 7 15 15 0 8 -7 15 -15 15 -8 0
-15 -7 -15 -15z"/>
<path d="M732 839 c2 -6 8 -10 13 -10 5 0 11 4 13 10 2 6 -4 11 -13 11 -9 0
-15 -5 -13 -11z"/>
<path d="M1876 325 c-4 -18 -25 -94 -46 -166 -22 -73 -40 -138 -40 -146 0 -8
11 -13 28 -13 28 0 29 2 76 167 27 93 51 174 53 181 4 8 -6 12 -30 12 -32 0
-35 -3 -41 -35z"/>
<path d="M2000 286 c0 -32 3 -34 80 -67 44 -19 79 -38 77 -42 -1 -5 -34 -22
-72 -39 -39 -16 -74 -33 -78 -37 -14 -14 -15 -61 -2 -61 7 0 65 25 129 55 110
52 116 57 116 85 0 17 -4 30 -10 30 -5 0 -47 18 -92 41 -46 22 -98 47 -115 54
l-33 14 0 -33z"/>
<path d="M1377 293 c-16 -16 -4 -28 28 -28 38 0 42 4 23 23 -13 13 -41 16 -51
5z"/>
<path d="M1582 199 c-12 -19 -11 -19 8 -9 11 6 18 15 15 21 -8 12 -8 12 -23
-12z"/>
<path d="M1542 150 l-24 -20 25 -9 c14 -5 57 -26 97 -45 40 -20 76 -36 81 -36
5 0 9 13 9 30 0 26 -6 32 -63 58 -90 42 -99 44 -125 22z"/>
</g>
</svg>
