<?xml version="1.0" standalone="no"?>
<!DOCTYPE svg PUBLIC "-//W3C//DTD SVG 20010904//EN"
 "http://www.w3.org/TR/2001/REC-SVG-20010904/DTD/svg10.dtd">
<svg version="1.0" xmlns="http://www.w3.org/2000/svg"
 width="1200.000000pt" height="1200.000000pt" viewBox="0 0 1200.000000 1200.000000"
 preserveAspectRatio="xMidYMid meet">

<g transform="translate(0.000000,1200.000000) scale(0.100000,-0.100000)"
fill="#000000" stroke="none">
<path d="M5761 10414 c-1312 -130 -2481 -766 -3309 -1802 -131 -164 -344 -487
-450 -682 -300 -553 -487 -1148 -557 -1781 -23 -200 -31 -636 -16 -840 48
-651 210 -1249 490 -1809 246 -490 511 -859 896 -1246 397 -400 799 -689 1290
-929 324 -158 610 -263 955 -349 727 -182 1537 -188 2259 -16 1086 259 2023
866 2711 1755 416 538 729 1210 879 1885 29 132 67 376 88 560 24 221 24 724
0 950 -84 767 -314 1439 -711 2075 -597 957 -1542 1689 -2616 2026 -340 108
-683 175 -1050 209 -158 14 -695 11 -859 -6z m2439 -3216 c18 -13 43 -36 54
-51 21 -28 21 -30 26 -1255 4 -990 8 -1231 18 -1250 7 -13 72 -117 143 -233
164 -265 166 -269 149 -309 -7 -17 -22 -35 -32 -41 -14 -8 -739 -10 -2346 -10
l-2327 1 -22 26 c-42 47 -34 64 150 335 l172 254 5 1230 c5 1210 5 1230 25
1257 11 14 36 36 55 47 35 21 37 21 1966 21 l1931 0 33 -22z"/>
<path d="M6033 6942 l-1561 -2 1 -1008 2 -1007 1758 -3 1757 -2 0 1010 0 1010
-67 1 c-185 4 -446 4 -1890 1z m423 -489 c-3 -10 -42 -169 -86 -353 -116 -485
-167 -690 -171 -695 -8 -7 -207 -10 -214 -3 -6 6 57 277 202 876 l47 192 114
0 c103 0 113 -2 108 -17z m544 -270 c113 -47 238 -98 278 -115 l73 -30 -3
-130 -3 -129 -105 -44 c-58 -24 -240 -100 -405 -168 l-300 -125 -3 161 c-1 93
1 163 7 166 5 4 86 35 180 71 93 36 167 68 163 71 -4 3 -85 36 -179 73 l-173
67 0 164 0 164 133 -55 c72 -31 224 -94 337 -141z m-1090 28 l0 -158 -147 -58
c-82 -32 -164 -64 -183 -72 l-35 -15 30 -12 c17 -7 99 -39 183 -71 l152 -59 0
-164 c0 -127 -3 -163 -12 -159 -7 3 -103 43 -213 89 -110 46 -291 122 -402
168 l-203 84 0 122 c0 85 4 124 13 131 6 5 118 53 247 106 129 53 303 126 385
161 83 35 158 65 168 65 15 1 17 -13 17 -158z"/>
<path d="M4256 4475 l-56 -85 776 0 c617 0 775 -3 771 -12 -3 -7 -12 -30 -21
-50 l-16 -38 525 0 525 0 -16 38 c-9 20 -18 43 -21 50 -4 9 152 12 761 12 421
0 766 3 766 6 0 4 -21 42 -48 85 l-47 78 -1921 1 -1921 0 -57 -85z"/>
</g>
</svg>
