<?xml version="1.0" standalone="no"?>
<!DOCTYPE svg PUBLIC "-//W3C//DTD SVG 20010904//EN"
 "http://www.w3.org/TR/2001/REC-SVG-20010904/DTD/svg10.dtd">
<svg version="1.0" xmlns="http://www.w3.org/2000/svg"
 width="209.000000pt" height="241.000000pt" viewBox="0 0 209.000000 241.000000"
 preserveAspectRatio="xMidYMid meet">

<g transform="translate(0.000000,241.000000) scale(0.100000,-0.100000)"
fill="#000000" stroke="none">
<path d="M518 2102 l-518 -297 0 -600 0 -600 518 -297 c285 -164 522 -298 527
-298 9 0 565 320 565 326 0 2 -7 1 -15 -2 -26 -10 -17 23 13 46 l27 22 -40
-22 c-22 -12 -150 -85 -283 -162 -134 -77 -250 -142 -258 -145 -7 -3 -234 122
-504 278 l-490 283 0 571 0 571 490 283 c269 156 496 281 504 278 8 -3 124
-68 258 -145 133 -77 261 -150 283 -162 l40 -22 -27 22 c-30 23 -39 56 -13 46
8 -3 15 -4 15 -2 0 6 -556 326 -566 326 -5 0 -242 -134 -526 -298z"/>
<path d="M427 1880 c-15 -12 -31 -38 -37 -58 -6 -23 -10 -226 -10 -539 0 -496
0 -503 20 -503 19 0 20 8 22 473 l3 472 388 3 387 2 0 23 c-1 49 -20 103 -45
125 -26 22 -28 22 -364 22 -326 0 -339 -1 -364 -20z m709 -43 c13 -15 24 -37
24 -48 0 -18 -10 -19 -371 -19 l-371 0 7 28 c14 58 24 61 194 64 86 2 232 3
324 3 l169 0 24 -28z"/>
<path d="M1270 1670 c-61 -8 -127 -32 -180 -66 -45 -28 -117 -101 -136 -137
-13 -25 -13 -28 2 -34 12 -4 23 3 37 23 148 210 433 242 625 71 l47 -41 -44
47 c-60 63 -45 71 21 11 l53 -48 -44 46 c-92 98 -240 147 -381 128z"/>
<path d="M495 1520 c-24 -27 -22 -70 5 -92 28 -23 52 -23 80 0 44 36 17 112
-40 112 -15 0 -35 -9 -45 -20z m68 -34 c7 -17 -18 -40 -33 -31 -5 3 -10 15
-10 26 0 23 35 27 43 5z"/>
<path d="M1252 1519 c-63 -31 -92 -87 -92 -174 0 -59 -3 -71 -25 -91 -24 -22
-25 -27 -25 -157 0 -191 -14 -180 226 -178 238 2 224 -9 224 173 0 124 -1 130
-25 154 -22 22 -25 34 -25 95 0 76 -12 109 -57 151 -55 52 -129 62 -201 27z
m148 -34 c48 -25 70 -67 77 -145 l6 -70 -32 0 -31 0 0 59 c0 74 -5 88 -41 106
-41 22 -77 18 -104 -10 -22 -21 -25 -33 -25 -90 0 -62 -1 -65 -24 -65 -20 0
-24 6 -30 40 -21 133 94 232 204 175z m-22 -149 l3 -66 -46 0 -45 0 0 65 c0
59 2 67 23 74 46 17 62 0 65 -73z m137 -246 l0 -135 -160 -3 c-88 -1 -170 0
-182 3 -22 5 -23 9 -23 134 0 70 3 131 7 135 4 3 86 5 182 4 l176 -3 0 -135z"/>
<path d="M1290 1180 c-27 -27 -25 -62 5 -90 19 -18 25 -34 25 -67 0 -32 4 -43
15 -43 11 0 15 12 15 45 0 34 6 50 25 69 14 14 25 34 25 46 0 28 -35 60 -65
60 -14 0 -34 -9 -45 -20z m68 -43 c4 -20 -25 -34 -40 -19 -15 15 -1 44 19 40
10 -2 19 -11 21 -21z"/>
<path d="M660 1481 c0 -15 8 -20 36 -23 34 -3 38 -7 58 -58 l22 -55 107 -3
c102 -3 107 -2 107 18 0 19 -6 20 -94 20 l-94 0 -22 60 -22 60 -49 0 c-42 0
-49 -3 -49 -19z"/>
<path d="M610 1270 c0 -13 7 -20 20 -20 13 0 20 7 20 20 0 13 -7 20 -20 20
-13 0 -20 -7 -20 -20z"/>
<path d="M700 1270 c0 -19 7 -20 145 -20 138 0 145 1 145 20 0 19 -7 20 -145
20 -138 0 -145 -1 -145 -20z"/>
<path d="M660 1180 c0 -13 7 -20 20 -20 13 0 20 7 20 20 0 13 -7 20 -20 20
-13 0 -20 -7 -20 -20z"/>
<path d="M750 1180 c0 -19 7 -20 120 -20 113 0 120 1 120 20 0 19 -7 20 -120
20 -113 0 -120 -1 -120 -20z"/>
<path d="M755 1058 c-19 -50 -23 -53 -58 -56 -29 -3 -37 -7 -37 -23 0 -16 7
-19 49 -19 l49 0 22 55 22 55 94 0 c87 0 94 1 94 20 0 19 -7 20 -108 20 l-107
0 -20 -52z"/>
<path d="M495 1024 c-26 -26 -16 -86 17 -102 54 -25 107 22 86 78 -5 13 -15
28 -21 32 -21 13 -65 9 -82 -8z m68 -38 c7 -17 -18 -40 -33 -31 -5 3 -10 15
-10 26 0 23 35 27 43 5z"/>
<path d="M951 1021 c-12 -8 -10 -17 14 -51 153 -220 478 -254 675 -70 l45 42
-44 -36 c-61 -49 -84 -48 -38 2 15 17 7 13 -25 -11 -76 -57 -128 -72 -248 -72
-98 0 -109 2 -171 32 -46 23 -85 52 -123 94 -31 33 -56 64 -56 70 0 11 -11 11
-29 0z"/>
<path d="M1649 963 c-13 -16 -12 -17 4 -4 16 13 21 21 13 21 -2 0 -10 -8 -17
-17z"/>
<path d="M380 670 c0 -33 6 -76 14 -94 28 -67 24 -66 397 -66 324 0 337 1 362
20 30 24 47 75 47 142 l0 47 -117 3 c-65 2 -250 5 -410 6 l-293 3 0 -61z m780
-20 c0 -57 -18 -88 -57 -101 -24 -8 -122 -9 -336 -4 -336 8 -332 7 -344 78
-11 71 -34 67 372 67 l365 0 0 -40z"/>
<path d="M680 620 c0 -19 7 -20 110 -20 103 0 110 1 110 20 0 19 -7 20 -110
20 -103 0 -110 -1 -110 -20z"/>
</g>
</svg>
